#!OML:ASF H:\Dans Jumps\Project 1\Capture day 1\Session 1\subject.ASF
:FULLY-SPECIFIED
:DEGREES
489
root 0.442217 17.7373 7.18542 8.5869 -0.958417 -1.46387
lowerback -2.09174 -0.164694 -0.307611
upperback 2.97585 -0.263966 1.48401
thorax 4.24765 -0.167171 1.68835
lowerneck -11.2871 0.422522 -1.76177
upperneck 38.0316 0.644038 1.21394
head 15.1415 0.179151 0.927324
rclavicle -1.14301e-015 3.77691e-015
rhumerus -26.3831 -17.5812 -79.1288
rradius 21.8552
rwrist 39.0579
rhand -15.2667 -25.4629
rfingers 7.12502
rthumb 10.9075 -55.1596
lclavicle -1.14301e-015 3.77691e-015
lhumerus -22.7906 4.15407 86.2909
lradius 15.8636
lwrist 0.870216
lhand -25.0283 -5.18155
lfingers 7.12502
lthumb 1.48428 24.793
rfemur -13.0795 -1.31122 19.4319
rtibia 19.211
rfoot -12.7112 -2.55733
rtoes 12.5012
lfemur -13.2704 6.54937 -17.822
ltibia 17.583
lfoot -10.0912 3.66587
ltoes 0.80746
490
root 0.443101 17.7373 7.18314 8.57752 -0.994618 -1.45364
lowerback -2.09102 -0.163848 -0.320105
upperback 2.98186 -0.262068 1.47551
thorax 4.25345 -0.166539 1.68671
lowerneck -11.3018 0.4277 -1.75475
upperneck 38.0275 0.656574 1.19613
head 15.1428 0.182914 0.92052
rclavicle 3.8763e-015 6.36111e-015
rhumerus -26.3918 -17.6135 -79.1227
rradius 21.8412
rwrist 39.0787
rhand -15.2554 -25.4659
rfingers 7.12502
rthumb 10.9184 -55.1621
lclavicle 3.8763e-015 6.36111e-015
lhumerus -22.7852 4.12186 86.3152
lradius 15.8472
lwrist 0.904621
lhand -25.1143 -5.38439
lfingers 7.12502
lthumb 1.40115 24.5908
rfemur -13.0927 -1.29434 19.4163
rtibia 19.2279
rfoot -12.7211 -2.55813
rtoes 12.4142
lfemur -13.2587 6.57473 -17.8381
ltibia 17.5743
lfoot -10.085 3.66751
ltoes 0.851119
491
root 0.44391 17.7372 7.18088 8.56742 -1.02972 -1.44307
lowerback -2.08989 -0.163421 -0.334341
upperback 2.98711 -0.26068 1.46791
thorax 4.25824 -0.166225 1.68694
lowerneck -11.3164 0.434058 -1.74321
upperneck 38.0271 0.671465 1.17346
head 15.146 0.18764 0.911278
rclavicle -3.52843e-015 -7.35503e-015
rhumerus -26.404 -17.6475 -79.114
rradius 21.8325
rwrist 39.0955
rhand -15.2458 -25.4647
rfingers 7.12502
rthumb 10.9276 -55.1603
lclavicle -3.52843e-015 -7.35503e-015
lhumerus -22.7774 4.10745 86.3342
lradius 15.8287
lwrist 0.934282
lhand -25.1868 -5.52993
lfingers 7.12502
lthumb 1.33117 24.4457
rfemur -13.1051 -1.27613 19.4006
rtibia 19.2455
rfoot -12.7322 -2.56054
rtoes 12.3263
lfemur -13.245 6.59341 -17.8539
ltibia 17.5637
lfoot -10.0765 3.6751
ltoes 0.89667
492
root 0.444784 17.737 7.17877 8.55683 -1.06233 -1.43126
lowerback -2.09098 -0.162883 -0.347474
upperback 2.9917 -0.259158 1.45947
thorax 4.2636 -0.165793 1.6857
lowerneck -11.3283 0.441134 -1.72856
upperneck 38.03 0.687242 1.14898
head 15.1502 0.192935 0.900884
rclavicle 5.06901e-015 3.77691e-015
rhumerus -26.4209 -17.6816 -79.1044
rradius 21.8301
rwrist 39.101
rhand -15.2283 -25.4702
rfingers 7.12502
rthumb 10.9446 -55.1649
lclavicle 5.06901e-015 3.77691e-015
lhumerus -22.7681 4.10147 86.3492
lradius 15.8145
lwrist 0.962518
lhand -25.2364 -5.60387
lfingers 7.12502
lthumb 1.2832 24.372
rfemur -13.1152 -1.26589 19.3833
rtibia 19.2621
rfoot -12.7445 -2.55453
rtoes 12.2303
lfemur -13.23 6.60833 -17.8715
ltibia 17.5531
lfoot -10.0681 3.68638
ltoes 0.921253
493
root 0.44565 17.7369 7.17673 8.54501 -1.09187 -1.42046
lowerback -2.09228 -0.162382 -0.359031
upperback 2.99554 -0.257759 1.45154
thorax 4.26829 -0.165375 1.68409
lowerneck -11.3363 0.44817 -1.71427
upperneck 38.0363 0.702246 1.12652
head 15.1551 0.198108 0.891296
rclavicle -1.2921e-015 9.74045e-015
rhumerus -26.4399 -17.7158 -79.0933
rradius 21.8288
rwrist 39.098
rhand -15.2132 -25.4794
rfingers 7.12502
rthumb 10.9592 -55.1734
lclavicle -1.2921e-015 9.74045e-015
lhumerus -22.7574 4.10357 86.3606
lradius 15.802
lwrist 0.984081
lhand -25.2466 -5.59694
lfingers 7.12502
lthumb 1.27341 24.379
rfemur -13.1219 -1.25966 19.3673
rtibia 19.2773
rfoot -12.7577 -2.54555
rtoes 12.1337
lfemur -13.214 6.6165 -17.8873
ltibia 17.5433
lfoot -10.0586 3.70227
ltoes 0.940584
494
root 0.446534 17.7368 7.1748 8.53282 -1.11925 -1.4138
lowerback -2.09463 -0.162311 -0.366134
upperback 2.99815 -0.257165 1.44503
thorax 4.27232 -0.165229 1.68138
lowerneck -11.3402 0.456106 -1.70005
upperneck 38.0465 0.717648 1.10641
head 15.161 0.203723 0.8828
rclavicle 5.56597e-015 -4.37326e-015
rhumerus -26.4606 -17.7464 -79.0821
rradius 21.8287
rwrist 39.0847
rhand -15.2017 -25.4878
rfingers 7.12502
rthumb 10.9702 -55.1812
lclavicle 5.56597e-015 -4.37326e-015
lhumerus -22.7488 4.11858 86.3661
lradius 15.7841
lwrist 0.974239
lhand -25.2409 -5.56826
lfingers 7.12502
lthumb 1.27894 24.4076
rfemur -13.1262 -1.25543 19.3559
rtibia 19.2907
rfoot -12.7675 -2.53362
rtoes 12.0308
lfemur -13.1983 6.621 -17.8983
ltibia 17.5351
lfoot -10.0489 3.72203
ltoes 0.946698
495
root 0.447374 17.7368 7.17279 8.52179 -1.14265 -1.40609
lowerback -2.09758 -0.163286 -0.375275
upperback 2.99974 -0.257892 1.43905
thorax 4.27568 -0.165806 1.6803
lowerneck -11.3424 0.463505 -1.68968
upperneck 38.0589 0.731101 1.09206
head 15.1675 0.208723 0.877125
rclavicle 5.06901e-015 -4.77083e-015
rhumerus -26.4794 -17.7713 -79.0716
rradius 21.8276
rwrist 39.0618
rhand -15.1917 -25.4963
rfingers 7.12502
rthumb 10.9798 -55.1892
lclavicle 5.06901e-015 -4.77083e-015
lhumerus -22.7418 4.13806 86.3685
lradius 15.7689
lwrist 0.94906
lhand -25.2146 -5.50955
lfingers 7.12502
lthumb 1.30431 24.4662
rfemur -13.1308 -1.25157 19.3434
rtibia 19.3026
rfoot -12.775 -2.52165
rtoes 11.9473
lfemur -13.1865 6.62209 -17.9103
ltibia 17.5293
lfoot -10.0385 3.74118
ltoes 0.949412
496
root 0.44822 17.7368 7.17077 8.51103 -1.16225 -1.40052
lowerback -2.10002 -0.16602 -0.383383
upperback 3.00051 -0.261065 1.43479
thorax 4.27799 -0.167588 1.68027
lowerneck -11.3424 0.47112 -1.68342
upperneck 38.0729 0.744052 1.08271
head 15.1743 0.213573 0.874224
rclavicle 4.91992e-015 -1.94809e-014
rhumerus -26.4967 -17.7892 -79.0616
rradius 21.8263
rwrist 39.0327
rhand -15.1851 -25.4996
rfingers 7.12502
rthumb 10.9863 -55.1921
lclavicle 4.91992e-015 -1.94809e-014
lhumerus -22.7381 4.15646 86.37
lradius 15.7552
lwrist 0.918186
lhand -25.1983 -5.46656
lfingers 7.12502
lthumb 1.32 24.5091
rfemur -13.1355 -1.25129 19.3334
rtibia 19.3136
rfoot -12.7781 -2.50677
rtoes 11.8747
lfemur -13.1765 6.61953 -17.9195
ltibia 17.525
lfoot -10.0277 3.76081
ltoes 0.944765
497
root 0.448974 17.7369 7.16862 8.50118 -1.17985 -1.39671
lowerback -2.10089 -0.170016 -0.391989
upperback 3.0005 -0.265951 1.43215
thorax 4.27867 -0.170254 1.68209
lowerneck -11.3439 0.479986 -1.67751
upperneck 38.089 0.758734 1.07408
head 15.1824 0.219172 0.871988
rclavicle 7.45443e-016 -4.96962e-015
rhumerus -26.5104 -17.7995 -79.0534
rradius 21.8243
rwrist 39.0003
rhand -15.1773 -25.4994
rfingers 7.12502
rthumb 10.9937 -55.1915
lclavicle 7.45443e-016 -4.96962e-015
lhumerus -22.7364 4.16969 86.372
lradius 15.7471
lwrist 0.891429
lhand -25.1842 -5.42228
lfingers 7.12502
lthumb 1.33367 24.5533
rfemur -13.1422 -1.24751 19.3258
rtibia 19.3242
rfoot -12.7785 -2.49469
rtoes 11.8309
lfemur -13.1701 6.6161 -17.9263
ltibia 17.5233
lfoot -10.0175 3.77832
ltoes 0.941928
498
root 0.449742 17.737 7.16645 8.49237 -1.1961 -1.39226
lowerback -2.10154 -0.174094 -0.400658
upperback 2.99859 -0.270914 1.42929
thorax 4.27724 -0.172935 1.6837
lowerneck -11.3396 0.488004 -1.67445
upperneck 38.1026 0.771229 1.0696
head 15.1879 0.224025 0.871603
rclavicle 2.68359e-015 5.96354e-016
rhumerus -26.5238 -17.8081 -79.045
rradius 21.8216
rwrist 38.9685
rhand -15.1674 -25.5007
rfingers 7.12502
rthumb 11.0033 -55.1923
lclavicle 2.68359e-015 5.96354e-016
lhumerus -22.7398 4.16904 86.376
lradius 15.7465
lwrist 0.877004
lhand -25.162 -5.36115
lfingers 7.12502
lthumb 1.35509 24.6143
rfemur -13.1502 -1.24728 19.3174
rtibia 19.3342
rfoot -12.7767 -2.47748
rtoes 11.8171
lfemur -13.1662 6.61091 -17.9338
ltibia 17.5242
lfoot -10.0085 3.79632
ltoes 0.938229
499
root 0.45034 17.7371 7.16409 8.48685 -1.21209 -1.39514
lowerback -2.10234 -0.17758 -0.403926
upperback 2.99498 -0.275392 1.42902
thorax 4.27411 -0.17523 1.68499
lowerneck -11.3363 0.494918 -1.67243
upperneck 38.1157 0.781829 1.06655
head 15.1934 0.228124 0.871713
rclavicle 4.22417e-015 3.18055e-015
rhumerus -26.5337 -17.8195 -79.0359
rradius 21.8163
rwrist 38.9451
rhand -15.1563 -25.499
rfingers 7.12502
rthumb 11.014 -55.19
lclavicle 4.22417e-015 3.18055e-015
lhumerus -22.7429 4.16229 86.3806
lradius 15.7491
lwrist 0.86849
lhand -25.1266 -5.28798
lfingers 7.12502
lthumb 1.38926 24.6872
rfemur -13.1624 -1.23872 19.3179
rtibia 19.3439
rfoot -12.7712 -2.46726
rtoes 11.8069
lfemur -13.1681 6.60866 -17.9326
ltibia 17.527
lfoot -9.99987 3.81148
ltoes 0.93473
500
root 0.450854 17.737 7.16183 8.4812 -1.23076 -1.3996
lowerback -2.1044 -0.179479 -0.405378
upperback 2.99125 -0.277826 1.42856
thorax 4.27149 -0.176448 1.68518
lowerneck -11.3295 0.501332 -1.66891
upperneck 38.1263 0.792005 1.0614
head 15.1969 0.232009 0.870542
rclavicle 2.93207e-015 1.98785e-016
rhumerus -26.542 -17.8255 -79.0294
rradius 21.813
rwrist 38.9171
rhand -15.1424 -25.5012
rfingers 7.12502
rthumb 11.0274 -55.1915
lclavicle 2.93207e-015 1.98785e-016
lhumerus -22.7476 4.14483 86.3859
lradius 15.755
lwrist 0.869057
lhand -25.0873 -5.2214
lfingers 7.12502
lthumb 1.42727 24.7536
rfemur -13.1736 -1.22857 19.3201
rtibia 19.3525
rfoot -12.7641 -2.4552
rtoes 11.8043
lfemur -13.1695 6.61056 -17.9296
ltibia 17.5305
lfoot -9.99351 3.82572
ltoes 0.927605
501
root 0.451295 17.7369 7.15963 8.47533 -1.25085 -1.40351
lowerback -2.10806 -0.180241 -0.406932
upperback 2.98815 -0.278722 1.42747
thorax 4.27037 -0.176904 1.68486
lowerneck -11.3222 0.506067 -1.66664
upperneck 38.1344 0.800254 1.05565
head 15.1991 0.234848 0.869009
rclavicle -3.27995e-015 -9.93923e-015
rhumerus -26.5461 -17.836 -79.023
rradius 21.8064
rwrist 38.8977
rhand -15.1325 -25.5043
rfingers 7.12502
rthumb 11.0369 -55.1941
lclavicle -3.27995e-015 -9.93923e-015
lhumerus -22.7511 4.11733 86.3927
lradius 15.7649
lwrist 0.892674
lhand -25.0421 -5.15208
lfingers 7.12502
lthumb 1.47087 24.8226
rfemur -13.1835 -1.21755 19.3218
rtibia 19.3599
rfoot -12.7575 -2.44276
rtoes 11.7975
lfemur -13.1697 6.61601 -17.927
ltibia 17.5336
lfoot -9.98936 3.83724
ltoes 0.932138
502
root 0.451755 17.7368 7.15774 8.46783 -1.27225 -1.4077
lowerback -2.11394 -0.179564 -0.406254
upperback 2.98565 -0.277778 1.42565
thorax 4.27106 -0.176374 1.68264
lowerneck -11.313 0.509787 -1.66336
upperneck 38.14 0.807479 1.04782
head 15.1997 0.23716 0.866219
rclavicle 8.34896e-015 -8.94531e-015
rhumerus -26.5508 -17.8464 -79.0165
rradius 21.8015
rwrist 38.8808
rhand -15.1253 -25.5073
rfingers 7.12502
rthumb 11.0439 -55.1968
lclavicle 8.34896e-015 -8.94531e-015
lhumerus -22.7568 4.0874 86.3977
lradius 15.7724
lwrist 0.916389
lhand -25.0295 -5.14568
lfingers 7.12502
lthumb 1.48312 24.8289
rfemur -13.1894 -1.20935 19.3234
rtibia 19.3666
rfoot -12.7522 -2.42571
rtoes 11.7909
lfemur -13.1645 6.62649 -17.9243
ltibia 17.533
lfoot -9.98631 3.84564
ltoes 0.938874
